<?xml version="1.0" encoding="utf-8"?>
<!-- Generator: Adobe Illustrator 18.0.0, SVG Export Plug-In . SVG Version: 6.00 Build 0)  -->
<!DOCTYPE svg PUBLIC "-//W3C//DTD SVG 1.1//EN" "http://www.w3.org/Graphics/SVG/1.1/DTD/svg11.dtd">
<svg version="1.1" id="Layer_1" xmlns="http://www.w3.org/2000/svg" xmlns:xlink="http://www.w3.org/1999/xlink" x="0px" y="0px"
	 viewBox="0 0 44.5 43.8" enable-background="new 0 0 44.5 43.8" xml:space="preserve">
<g>
	<g>
		<path fill="#FFFFFF" d="M22.3,2.7c-10.6,0-19.2,8.6-19.2,19.2c0,10.6,8.6,19.2,19.2,19.2c10.6,0,19.2-8.6,19.2-19.2
			C41.5,11.3,32.9,2.7,22.3,2.7L22.3,2.7z M27,22.6h-3.1v11.1h-4.6V22.6h-2.2v-3.9h2.2v-2.5c0-1.8,0.9-4.7,4.7-4.7l3.4,0v3.8h-2.5
			c-0.4,0-1,0.2-1,1.1v2.3h3.5L27,22.6z M27,22.6"/>
	</g>
</g>
</svg>
