<?xml version="1.0" encoding="utf-8"?>
<!-- Generator: Adobe Illustrator 18.0.0, SVG Export Plug-In . SVG Version: 6.00 Build 0)  -->
<!DOCTYPE svg PUBLIC "-//W3C//DTD SVG 1.1//EN" "http://www.w3.org/Graphics/SVG/1.1/DTD/svg11.dtd">
<svg version="1.1" id="Layer_1" xmlns="http://www.w3.org/2000/svg" xmlns:xlink="http://www.w3.org/1999/xlink" x="0px" y="0px"
	 viewBox="0 0 44.5 43.8" enable-background="new 0 0 44.5 43.8" xml:space="preserve">
<g>
	<g>
		<path fill="#FFFFFF" d="M22.3,2.7c-10.6,0-19.2,8.6-19.2,19.2s8.6,19.2,19.2,19.2s19.2-8.6,19.2-19.2S32.9,2.7,22.3,2.7L22.3,2.7z
			 M27.1,21.9c0,4.8-3.9,8.7-8.7,8.7c-4.8,0-8.7-3.9-8.7-8.7c0-4.8,3.9-8.7,8.7-8.7c1.9,0,3.8,0.6,5.3,1.8l-2,2.6
			c-1-0.7-2.1-1.1-3.3-1.1c-3,0-5.4,2.4-5.4,5.4c0,3,2.4,5.4,5.4,5.4c2.4,0,4.4-1.6,5.1-3.7h-5.1v-3.3h8.7V21.9z M36.3,23h-2.5v2.5
			h-2.2V23h-2.5v-2.2h2.5v-2.5h2.2v2.5h2.5V23z M36.3,23"/>
	</g>
</g>
</svg>
