<?xml version="1.0" encoding="utf-8"?>
<!-- Generator: Adobe Illustrator 18.0.0, SVG Export Plug-In . SVG Version: 6.00 Build 0)  -->
<!DOCTYPE svg PUBLIC "-//W3C//DTD SVG 1.1//EN" "http://www.w3.org/Graphics/SVG/1.1/DTD/svg11.dtd">
<svg version="1.1" id="Layer_1" xmlns="http://www.w3.org/2000/svg" xmlns:xlink="http://www.w3.org/1999/xlink" x="0px" y="0px"
	 viewBox="0 0 44.5 43.8" enable-background="new 0 0 44.5 43.8" xml:space="preserve">
<g>
	<g>
		<path fill="#FFFFFF" d="M22.3,25.7c2.1,0,3.8-1.7,3.8-3.8c0-0.8-0.3-1.6-0.7-2.2c-0.7-1-1.8-1.6-3.1-1.6c-1.3,0-2.4,0.6-3.1,1.6
			c-0.5,0.6-0.7,1.4-0.7,2.2C18.4,24,20.1,25.7,22.3,25.7L22.3,25.7z M22.3,25.7"/>
		<path fill="#FFFFFF" d="M30.7,17.2v-3.7h-0.5l-3.2,0l0,3.7L30.7,17.2z M30.7,17.2"/>
		<path fill="#FFFFFF" d="M22.3,2.7c-10.6,0-19.2,8.6-19.2,19.2c0,10.6,8.6,19.2,19.2,19.2c10.6,0,19.2-8.6,19.2-19.2
			C41.5,11.3,32.9,2.7,22.3,2.7L22.3,2.7z M33.2,19.6v8.9c0,2.3-1.9,4.2-4.2,4.2H15.6c-2.3,0-4.2-1.9-4.2-4.2V15.2
			c0-2.3,1.9-4.2,4.2-4.2H29c2.3,0,4.2,1.9,4.2,4.2V19.6z M33.2,19.6"/>
		<path fill="#FFFFFF" d="M28.2,21.9c0,3.3-2.7,6-6,6c-3.3,0-6-2.7-6-6c0-0.8,0.2-1.5,0.4-2.2h-3.3v8.9c0,1.2,0.9,2.1,2.1,2.1H29
			c1.2,0,2.1-0.9,2.1-2.1v-8.9h-3.3C28.1,20.3,28.2,21.1,28.2,21.9L28.2,21.9z M28.2,21.9"/>
	</g>
</g>
</svg>
