<?xml version="1.0" encoding="utf-8"?>
<!-- Generator: Adobe Illustrator 18.0.0, SVG Export Plug-In . SVG Version: 6.00 Build 0)  -->
<!DOCTYPE svg PUBLIC "-//W3C//DTD SVG 1.1//EN" "http://www.w3.org/Graphics/SVG/1.1/DTD/svg11.dtd">
<svg version="1.1" id="Layer_1" xmlns="http://www.w3.org/2000/svg" xmlns:xlink="http://www.w3.org/1999/xlink" x="0px" y="0px"
	 viewBox="0 0 44.5 43.8" enable-background="new 0 0 44.5 43.8" xml:space="preserve">
<g>
	<g>
		<path fill="#FFFFFF" d="M22.3,2.7c-10.6,0-19.2,8.6-19.2,19.2c0,10.6,8.6,19.2,19.2,19.2c10.6,0,19.2-8.6,19.2-19.2
			C41.5,11.3,32.9,2.7,22.3,2.7L22.3,2.7z M30.8,17.5c0,0.2,0,0.4,0,0.6c0,5.8-4.4,12.6-12.6,12.6c-2.5,0-4.8-0.7-6.8-2
			c0.3,0,0.7,0.1,1.1,0.1c2.1,0,4-0.7,5.5-1.9c-1.9,0-3.6-1.3-4.1-3.1c0.3,0.1,0.5,0.1,0.8,0.1c0.4,0,0.8-0.1,1.2-0.2
			c-2-0.4-3.5-2.2-3.5-4.3c0,0,0,0,0-0.1c0.6,0.3,1.3,0.5,2,0.6c-1.2-0.8-2-2.1-2-3.7c0-0.8,0.2-1.6,0.6-2.2
			c2.2,2.7,5.4,4.4,9.1,4.6c-0.1-0.3-0.1-0.7-0.1-1c0-2.4,2-4.4,4.4-4.4c1.3,0,2.4,0.5,3.2,1.4c1-0.2,2-0.6,2.8-1.1
			c-0.3,1-1,1.9-1.9,2.4c0.9-0.1,1.7-0.3,2.5-0.7C32.4,16.1,31.7,16.9,30.8,17.5L30.8,17.5z M30.8,17.5"/>
	</g>
</g>
</svg>
